<svg width="18" height="4" viewBox="0 0 18 4" fill="none" xmlns="http://www.w3.org/2000/svg">
<path d="M2.50008 0.166656C1.48716 0.166656 0.666748 0.987073 0.666748 1.99999C0.666748 3.01291 1.48716 3.83332 2.50008 3.83332C3.513 3.83332 4.33341 3.01291 4.33341 1.99999C4.33341 0.987073 3.513 0.166656 2.50008 0.166656ZM15.5001 0.166656C14.4872 0.166656 13.6667 0.987073 13.6667 1.99999C13.6667 3.01291 14.4872 3.83332 15.5001 3.83332C16.513 3.83332 17.3334 3.01291 17.3334 1.99999C17.3334 0.987073 16.513 0.166656 15.5001 0.166656ZM9.00008 0.166656C7.98716 0.166656 7.16675 0.987073 7.16675 1.99999C7.16675 3.01291 7.98716 3.83332 9.00008 3.83332C10.013 3.83332 10.8334 3.01291 10.8334 1.99999C10.8334 0.987073 10.013 0.166656 9.00008 0.166656Z" fill="#929EAE"/>
</svg>
