<svg width="20" height="20" viewBox="0 0 20 20" fill="none" xmlns="http://www.w3.org/2000/svg">
<path d="M14.1667 2.02475H5.83342C3.33341 2.02475 1.66675 3.69142 1.66675 6.19142V11.1914C1.66675 13.6914 3.33341 15.3581 5.83342 15.3581V17.1331C5.83342 17.7998 6.57508 18.1998 7.12508 17.8248L10.8334 15.3581H14.1667C16.6667 15.3581 18.3334 13.6914 18.3334 11.1914V6.19142C18.3334 3.69142 16.6667 2.02475 14.1667 2.02475ZM10.0001 12.1664C9.65008 12.1664 9.37508 11.8831 9.37508 11.5414C9.37508 11.1998 9.65008 10.9164 10.0001 10.9164C10.3501 10.9164 10.6251 11.1998 10.6251 11.5414C10.6251 11.8831 10.3501 12.1664 10.0001 12.1664ZM11.0501 8.70809C10.7251 8.92476 10.6251 9.06643 10.6251 9.29976V9.47476C10.6251 9.81643 10.3417 10.0998 10.0001 10.0998C9.65842 10.0998 9.37508 9.81643 9.37508 9.47476V9.29976C9.37508 8.33308 10.0834 7.85808 10.3501 7.67475C10.6584 7.46642 10.7584 7.32475 10.7584 7.10808C10.7584 6.69142 10.4167 6.34975 10.0001 6.34975C9.58342 6.34975 9.24175 6.69142 9.24175 7.10808C9.24175 7.44975 8.95842 7.73308 8.61675 7.73308C8.27508 7.73308 7.99175 7.44975 7.99175 7.10808C7.99175 5.99975 8.89175 5.09975 10.0001 5.09975C11.1084 5.09975 12.0084 5.99975 12.0084 7.10808C12.0084 8.05808 11.3084 8.53309 11.0501 8.70809Z" fill="#929EAE"/>
</svg>
