<svg width="16" height="18" viewBox="0 0 16 18" fill="none" xmlns="http://www.w3.org/2000/svg">
<path d="M13 13.1667H3V11.5H13V13.1667ZM13 9.83332H3V8.16666H13V9.83332ZM13 6.49999H3V4.83332H13V6.49999ZM0.5 17.3333L1.75 16.0833L3 17.3333L4.25 16.0833L5.5 17.3333L6.75 16.0833L8 17.3333L9.25 16.0833L10.5 17.3333L11.75 16.0833L13 17.3333L14.25 16.0833L15.5 17.3333V0.666656L14.25 1.91666L13 0.666656L11.75 1.91666L10.5 0.666656L9.25 1.91666L8 0.666656L6.75 1.91666L5.5 0.666656L4.25 1.91666L3 0.666656L1.75 1.91666L0.5 0.666656V17.3333Z" fill="#1B212D"/>
</svg>
