<svg width="20" height="20" viewBox="0 0 20 20" fill="none" xmlns="http://www.w3.org/2000/svg">
<path d="M13.1501 1.66667H6.85008C3.70008 1.66667 2.91675 2.50834 2.91675 5.86667V15.25C2.91675 17.4667 4.13341 17.9917 5.60842 16.4083L5.61675 16.4C6.30008 15.675 7.34175 15.7333 7.93342 16.525L8.77508 17.65C9.45008 18.5417 10.5417 18.5417 11.2167 17.65L12.0584 16.525C12.6584 15.725 13.7001 15.6667 14.3834 16.4C15.8667 17.9833 17.0751 17.4583 17.0751 15.2417V5.86667C17.0834 2.50834 16.3001 1.66667 13.1501 1.66667ZM12.2917 8.95834H7.70842C7.36675 8.95834 7.08342 8.67501 7.08342 8.33334C7.08342 7.99167 7.36675 7.70834 7.70842 7.70834H12.2917C12.6334 7.70834 12.9167 7.99167 12.9167 8.33334C12.9167 8.67501 12.6334 8.95834 12.2917 8.95834Z" fill="#929EAE"/>
</svg>
