<svg width="20" height="20" viewBox="0 0 20 20" fill="none" xmlns="http://www.w3.org/2000/svg">
<path d="M6.56515 10.0583C6.56515 9.71666 6.84849 9.43332 7.19015 9.43332H11.7568V2.38332C11.7485 1.98332 11.4318 1.66666 11.0318 1.66666C6.12349 1.66666 2.69849 5.09166 2.69849 9.99999C2.69849 14.9083 6.12349 18.3333 11.0318 18.3333C11.4235 18.3333 11.7485 18.0167 11.7485 17.6167V10.675H7.19015C6.84015 10.6833 6.56515 10.4 6.56515 10.0583Z" fill="#929EAE"/>
<path d="M17.1179 9.61683L14.7512 7.2418C14.5096 7.00013 14.1096 7.00013 13.8679 7.2418C13.6262 7.48346 13.6262 7.88346 13.8679 8.12513L15.1679 9.42516H11.7512V10.6752H15.1596L13.8596 11.9752C13.6179 12.2168 13.6179 12.6168 13.8596 12.8585C13.9846 12.9835 14.1429 13.0418 14.3012 13.0418C14.4596 13.0418 14.6179 12.9835 14.7429 12.8585L17.1096 10.4835C17.3596 10.2502 17.3596 9.8585 17.1179 9.61683Z" fill="#929EAE"/>
</svg>
