<svg width="20" height="20" viewBox="0 0 20 20" fill="none" xmlns="http://www.w3.org/2000/svg">
<path d="M12.3749 3.29232V6.45898H11.1249V3.29232C11.1249 3.06732 10.9249 2.95898 10.7916 2.95898C10.7499 2.95898 10.7083 2.96732 10.6666 2.98398L4.05825 5.47565C3.61659 5.64232 3.33325 6.05898 3.33325 6.53398V7.09232C2.57492 7.65898 2.08325 8.56733 2.08325 9.59233V6.53398C2.08325 5.54232 2.69159 4.65898 3.61659 4.30898L10.2333 1.80898C10.4166 1.74232 10.6083 1.70898 10.7916 1.70898C11.6249 1.70898 12.3749 2.38398 12.3749 3.29232ZM17.9172 12.0833V12.9167C17.9172 13.1417 17.7422 13.325 17.5088 13.3333H16.2922C15.8505 13.3333 15.4505 13.0083 15.4172 12.575C15.3922 12.3167 15.4922 12.075 15.6588 11.9083C15.8088 11.75 16.0172 11.6667 16.2422 11.6667H17.5005C17.7422 11.675 17.9172 11.8583 17.9172 12.0833Z" fill="#929EAE"/>
<path d="M16.2333 10.7917H17.0833C17.5416 10.7917 17.9166 10.4167 17.9166 9.95833V9.59166C17.9166 7.86666 16.5083 6.45833 14.7833 6.45833H5.21659C4.50825 6.45833 3.85825 6.69166 3.33325 7.09166C2.57492 7.65833 2.08325 8.56666 2.08325 9.59166V15.2C2.08325 16.925 3.49159 18.3333 5.21659 18.3333H14.7833C16.5083 18.3333 17.9166 16.925 17.9166 15.2V15.0417C17.9166 14.5833 17.5416 14.2083 17.0833 14.2083H16.3583C15.5583 14.2083 14.7916 13.7167 14.5833 12.9417C14.4083 12.3083 14.6166 11.7 15.0333 11.2917C15.3416 10.975 15.7666 10.7917 16.2333 10.7917ZM11.6666 10.625H5.83325C5.49159 10.625 5.20825 10.3417 5.20825 9.99999C5.20825 9.65833 5.49159 9.37499 5.83325 9.37499H11.6666C12.0083 9.37499 12.2916 9.65833 12.2916 9.99999C12.2916 10.3417 12.0083 10.625 11.6666 10.625Z" fill="#929EAE"/>
</svg>
