<svg width="20" height="20" viewBox="0 0 20 20" fill="none" xmlns="http://www.w3.org/2000/svg">
<g clip-path="url(#clip0_1_1376)">
<path d="M16.4813 9.16667H3.51836C2.49561 9.16667 1.6665 9.9807 1.6665 10.9849V17.3485C1.6665 18.3526 2.49561 19.1667 3.51836 19.1667H16.4813C17.5041 19.1667 18.3332 18.3526 18.3332 17.3485V10.9849C18.3332 9.9807 17.5041 9.16667 16.4813 9.16667Z" stroke="#A2A2A8" stroke-width="1.5" stroke-linecap="round" stroke-linejoin="round"/>
<path d="M5 9.16666V5.46296C5 4.2351 5.52678 3.05754 6.46447 2.18932C7.40215 1.32109 8.67392 0.833328 10 0.833328C11.3261 0.833328 12.5979 1.32109 13.5355 2.18932C14.4732 3.05754 15 4.2351 15 5.46296V9.16666" stroke="#A2A2A8" stroke-width="1.5" stroke-linecap="round" stroke-linejoin="round"/>
</g>
<defs>
<clipPath id="clip0_1_1376">
<rect width="20" height="20" fill="white"/>
</clipPath>
</defs>
</svg>
