<svg width="14" height="14" viewBox="0 0 14 14" fill="none" xmlns="http://www.w3.org/2000/svg">
<path d="M13.374 6.15909L12.4673 5.10575C12.294 4.90575 12.154 4.53242 12.154 4.26575V3.13242C12.154 2.42575 11.574 1.84575 10.8673 1.84575H9.73397C9.47397 1.84575 9.09397 1.70575 8.89397 1.53242L7.84064 0.625749C7.38064 0.232416 6.62731 0.232416 6.16064 0.625749L5.11395 1.53908C4.91395 1.70575 4.53395 1.84575 4.27395 1.84575H3.12061C2.41395 1.84575 1.83395 2.42575 1.83395 3.13242V4.27242C1.83395 4.53242 1.69395 4.90575 1.52728 5.10575L0.62728 6.16576C0.240614 6.62576 0.240614 7.37242 0.62728 7.83242L1.52728 8.89242C1.69395 9.09242 1.83395 9.46576 1.83395 9.72576V10.8658C1.83395 11.5724 2.41395 12.1524 3.12061 12.1524H4.27395C4.53395 12.1524 4.91395 12.2924 5.11395 12.4658L6.16731 13.3724C6.62731 13.7658 7.38064 13.7658 7.84731 13.3724L8.90064 12.4658C9.10064 12.2924 9.47397 12.1524 9.74064 12.1524H10.874C11.5806 12.1524 12.1606 11.5724 12.1606 10.8658V9.73242C12.1606 9.47242 12.3006 9.09242 12.474 8.89242L13.3806 7.83909C13.7673 7.37909 13.7673 6.61909 13.374 6.15909ZM9.77397 5.73909L6.55397 8.95909C6.46064 9.05242 6.33397 9.10576 6.20064 9.10576C6.06731 9.10576 5.94064 9.05242 5.84731 8.95909L4.23395 7.34576C4.04061 7.15242 4.04061 6.83242 4.23395 6.63909C4.42728 6.44576 4.74728 6.44576 4.94061 6.63909L6.20064 7.89909L9.06731 5.03242C9.26064 4.83908 9.58064 4.83908 9.77397 5.03242C9.96731 5.22575 9.96731 5.54575 9.77397 5.73909Z" fill="#2F80ED"/>
</svg>
