<svg width="20" height="20" viewBox="0 0 20 20" fill="none" xmlns="http://www.w3.org/2000/svg">
<path d="M13.4917 1.66666H6.50841C3.47508 1.66666 1.66675 3.47499 1.66675 6.50832V13.4833C1.66675 16.525 3.47508 18.3333 6.50841 18.3333H13.4834C16.5167 18.3333 18.3251 16.525 18.3251 13.4917V6.50832C18.3334 3.47499 16.5251 1.66666 13.4917 1.66666ZM14.3834 8.29999L12.4584 10.7833C12.2167 11.0917 11.8751 11.2917 11.4834 11.3333C11.0917 11.3833 10.7084 11.275 10.4001 11.0333L8.87508 9.83332C8.81675 9.78332 8.75008 9.78332 8.71675 9.79166C8.68341 9.79166 8.62508 9.80832 8.57508 9.87499L6.59175 12.45C6.46675 12.6083 6.28341 12.6917 6.10008 12.6917C5.96675 12.6917 5.83341 12.65 5.71675 12.5583C5.44175 12.35 5.39175 11.9583 5.60008 11.6833L7.58342 9.10832C7.82508 8.79999 8.16675 8.59999 8.55841 8.54999C8.94175 8.49999 9.33341 8.60832 9.64175 8.84999L11.1667 10.05C11.2251 10.1 11.2834 10.1 11.3251 10.0917C11.3584 10.0917 11.4167 10.075 11.4667 10.0083L13.3917 7.52499C13.6001 7.24999 14.0001 7.19999 14.2667 7.41666C14.5417 7.64166 14.5917 8.03332 14.3834 8.29999Z" fill="#929EAE"/>
</svg>
