<svg width="18" height="18" viewBox="0 0 18 18" fill="none" xmlns="http://www.w3.org/2000/svg">
<path d="M15.7001 4.68471L10.9001 1.32637C9.59176 0.409706 7.58342 0.459706 6.32511 1.43471L2.15011 4.69304C1.31678 5.34304 0.658447 6.67637 0.658447 7.72633V13.4763C0.658447 15.6013 2.38345 17.3347 4.50845 17.3347H13.4918C15.6168 17.3347 17.3418 15.6097 17.3418 13.4847V7.83466C17.3418 6.70971 16.6168 5.32637 15.7001 4.68471ZM9.62509 14.0013C9.62509 14.343 9.34176 14.6263 9.00009 14.6263C8.65842 14.6263 8.37509 14.343 8.37509 14.0013V11.5013C8.37509 11.1597 8.65842 10.8763 9.00009 10.8763C9.34176 10.8763 9.62509 11.1597 9.62509 11.5013V14.0013Z" fill="#1B212D"/>
</svg>
