<svg width="20" height="21" viewBox="0 0 20 21" fill="none" xmlns="http://www.w3.org/2000/svg">
<path d="M18.3336 9.641V11.3577C18.3336 11.816 17.9669 12.191 17.5003 12.2077H15.8669C14.9669 12.2077 14.1419 11.5493 14.0669 10.6493C14.0169 10.1243 14.2169 9.63267 14.5669 9.291C14.8753 8.97433 15.3003 8.79102 15.7669 8.79102H17.5003C17.9669 8.80768 18.3336 9.18267 18.3336 9.641Z" fill="#363A3F"/>
<path d="M17.0584 13.4583H15.8667C14.2834 13.4583 12.9501 12.2667 12.8167 10.75C12.7417 9.88332 13.0584 9.01666 13.6917 8.39999C14.2251 7.84999 14.9667 7.54166 15.7667 7.54166H17.0584C17.3001 7.54166 17.5001 7.34166 17.4751 7.09999C17.2917 5.07499 15.9501 3.69166 13.9584 3.45832C13.7584 3.42499 13.5501 3.41666 13.3334 3.41666H5.83342C5.60008 3.41666 5.37508 3.43332 5.15841 3.46666C3.03341 3.73332 1.66675 5.31666 1.66675 7.58332V13.4167C1.66675 15.7167 3.53341 17.5833 5.83342 17.5833H13.3334C15.6667 17.5833 17.2751 16.125 17.4751 13.9C17.5001 13.6583 17.3001 13.4583 17.0584 13.4583ZM10.8334 8.62499H5.83342C5.49175 8.62499 5.20841 8.34166 5.20841 7.99999C5.20841 7.65832 5.49175 7.37499 5.83342 7.37499H10.8334C11.1751 7.37499 11.4584 7.65832 11.4584 7.99999C11.4584 8.34166 11.1751 8.62499 10.8334 8.62499Z" fill="#363A3F"/>
</svg>
